<?xml version="1.0" standalone="no"?>
<!DOCTYPE svg PUBLIC "-//W3C//DTD SVG 20010904//EN"
 "http://www.w3.org/TR/2001/REC-SVG-20010904/DTD/svg10.dtd">
<svg version="1.0" xmlns="http://www.w3.org/2000/svg"
 width="512.000000pt" height="512.000000pt" viewBox="0 0 512.000000 512.000000"
 preserveAspectRatio="xMidYMid meet">
<metadata>
Created by potrace 1.14, written by Peter Selinger 2001-2017
</metadata>
<g transform="translate(0.000000,512.000000) scale(0.100000,-0.100000)"
fill="#000000" stroke="none">
<path d="M2379 5116 c-2 -2 -40 -6 -83 -10 -44 -4 -82 -8 -85 -10 -3 -2 -31
-7 -61 -11 -30 -3 -75 -11 -100 -17 -25 -5 -56 -12 -70 -14 -52 -10 -236 -66
-326 -100 -412 -154 -826 -454 -1084 -784 -19 -25 -37 -47 -40 -50 -7 -7 -45
-61 -105 -150 -222 -327 -370 -741 -413 -1150 -14 -140 -7 -504 12 -615 3 -16
8 -43 10 -60 8 -58 38 -191 61 -275 284 -1011 1157 -1747 2205 -1857 90 -10
450 -10 535 0 827 90 1552 572 1964 1304 163 290 275 643 308 973 13 121 9
506 -6 605 -60 414 -216 809 -446 1135 -362 511 -888 871 -1485 1016 -58 14
-116 28 -130 30 -70 11 -85 14 -195 30 -44 6 -460 15 -466 10z"/>
</g>
</svg>
